<svg width="29" height="38" viewBox="0 0 29 38" fill="none" xmlns="http://www.w3.org/2000/svg">
<path d="M6.73327 24.8L1.73327 41.1334L0.266602 44.9334C0.266602 44.9334 2.39994 47.6667 7.4666 48.7334C10.9333 49.4667 13.2666 49.5334 14.7999 49.4001C16.0666 49.2667 17.5999 49 16.7999 46.6667C15.6666 43.2 16.0666 41 16.0666 41L17.8666 31.2L6.73327 24.8V24.8Z" fill="#EA9D7D"/>
<path d="M5.99973 33.6001C7.6664 36.1334 10.5997 38.2667 12.2664 39.0667C14.5997 40.2001 16.2664 40.4667 16.2664 40.4667L17.7997 32.3334L6.8664 24.8L6.2664 25.9334L5.79973 27.8C5.59973 27.8 4.4664 31.2667 5.99973 33.6001Z" fill="url(#paint0_linear_439:76501)"/>
<path d="M0.66663 45H0.599963C0.475038 44.9363 0.3974 44.8069 0.399964 44.6667L3.53329 35.0667C4.13329 33.0667 5.93328 26.3334 5.93328 26.3334C5.997 26.2084 6.1264 26.1308 6.26661 26.1334C6.39154 26.1971 6.46918 26.3265 6.46661 26.4667L4.06662 35.2C3.53329 37 0.933296 44.7334 0.933296 44.7334C0.933296 44.9334 0.799963 45 0.66663 45Z" fill="#CF7653"/>
<path d="M8.59964 28.6667L8.73298 29L8.99965 28.6667H8.59964Z" fill="#A84D3B"/>
<path fill-rule="evenodd" clip-rule="evenodd" d="M8.46631 28.8L8.59964 28.2L9.13298 28.7333L8.46631 28.8ZM12.1996 31.5333V30.8L12.9329 31.2L12.1996 31.5333ZM10.3997 29.6666L10.2663 30.3333L11.0663 30.1333L10.3997 29.6666ZM9.26633 29.5999L9.39966 28.9332L10.0663 29.3999L9.26633 29.5999Z" fill="#A84D3B"/>
<path fill-rule="evenodd" clip-rule="evenodd" d="M7.86621 28.2667L8.19954 27.6L8.6662 28.2667H7.86621ZM12.8662 31.9334L13.1329 32.3334L12.5995 32.4667L12.8662 31.9334ZM12.2662 31.6L11.8662 31.1334L11.6662 31.6667L12.2662 31.6ZM14.5329 32.5333L14.9996 33.0667L14.3329 33.1333L14.5329 32.5333ZM16.9329 33.7334L16.5329 33.2667L16.3329 33.8001L16.9329 33.7334ZM12.9995 31.2L13.4662 31.4L12.9995 31.7334V31.2ZM14.3995 33.4667L14.0662 33.0667L13.7995 33.6L14.3995 33.4667ZM11.3329 30.5334L11.7995 30.7334L11.3329 31.0667V30.5334Z" fill="#A84D3B"/>
<path fill-rule="evenodd" clip-rule="evenodd" d="M7.53326 26.4667L7.2666 26.7333L7.59993 26.8667L7.53326 26.4667ZM9.46656 29.7334L9.73323 29.5334L9.86657 29.9334L9.46656 29.7334ZM15.2666 32.1333L14.6666 31.8667V32.7333L15.2666 32.1333ZM16.5999 32.4L16.0666 32.2667L16.1999 32.9334L16.5999 32.4ZM16.9332 33.4L17.3999 33.4667L17.1332 33.9333L16.9332 33.4ZM15.5999 33.2667L15.3333 32.8667L14.9999 33.3334L15.5999 33.2667ZM17.2666 34.3334L17.1999 34.8001L16.7332 34.5334L17.2666 34.3334ZM17 35.7333L17.1333 35.2667L16.6 35.4L17 35.7333ZM15.5999 35.9334L15.8666 35.7334L15.9999 36.1334L15.5999 35.9334ZM16.1333 33.1333L15.8666 33.3333L16.2 33.5333L16.1333 33.1333ZM17.2666 32.6L17.5999 32.6667L17.3333 33L17.2666 32.6ZM16.3999 36.4667L16.1332 36.7333L16.4666 36.8667L16.3999 36.4667ZM14.0666 32.6L14.2666 32.8L13.9333 32.9334L14.0666 32.6ZM12.3332 32.2667L12.4666 31.9334L12.1332 32L12.3332 32.2667ZM13.3999 32.6001L13.3333 32.8667L13.0666 32.6001H13.3999ZM14.7333 34.1334L14.8666 34.4667L15.1333 34.2L14.7333 34.1334ZM16.4 33L16.6666 32.8667L16.7333 33.2L16.4 33Z" fill="#A84D3B"/>
<path fill-rule="evenodd" clip-rule="evenodd" d="M6.59951 28.8L6.39951 28.6666L6.33284 28.9333L6.59951 28.8ZM9.26618 29L8.86619 29.2666L9.33285 29.5333L9.26618 29ZM8.19948 29.8V29.4666L8.59947 29.6666L8.19948 29.8ZM13.3995 31.8666L13.7328 31.6666L13.3995 31.4666V31.8666ZM8.53284 31.9332L8.66617 31.7999L8.7995 31.9999L8.53284 31.9332ZM16.3995 32.7332L16.7995 32.4666L16.8662 32.9999L16.3995 32.7332ZM15.6662 32.9333L15.9328 32.8L15.9995 33.1333L15.6662 32.9333ZM16.1995 37.5333L15.9329 37.6666L16.2662 37.8666L16.1995 37.5333ZM15.5995 36.9999L15.5328 36.7333L15.8662 36.7999L15.5995 36.9999ZM15.4662 35.1333L15.5328 35.4L15.7995 35.2L15.4662 35.1333ZM16.5328 35.6L16.7328 35.8L16.3995 35.9333L16.5328 35.6ZM7.46619 32.6666L7.59953 32.7999L7.73286 32.5333L7.46619 32.6666ZM10.0662 34.1999L9.86617 34.1332V34.3332L10.0662 34.1999ZM9.26613 33.2666L9.39947 33.0666L9.5328 33.2666H9.26613ZM13.9328 35.1999V35.5333L14.3328 35.3999L13.9328 35.1999ZM13.3328 32.4666V32.1333L13.7328 32.3333L13.3328 32.4666ZM16.1995 34.3333L15.9328 34.3999L16.1328 34.6666L16.1995 34.3333ZM15.0662 36.8L15.1995 37.0666H14.8662L15.0662 36.8ZM15.4662 33.6L15.5995 33.9333L15.8662 33.6H15.4662ZM16.6661 34.3333L16.4661 33.9999H16.9328L16.6661 34.3333ZM17.1995 32.8L16.9995 33L17.3328 33.1333L17.1995 32.8ZM16.5328 34.7332L16.7995 34.8666L16.5328 35.0666V34.7332ZM7.73285 29.3333L7.93285 29.4666L7.66618 29.6L7.73285 29.3333ZM6.26617 30.6666L6.19951 30.8666L5.99951 30.6666H6.26617Z" fill="#A84D3B"/>
<path fill-rule="evenodd" clip-rule="evenodd" d="M6.93309 26.8666L6.73309 26.7333L6.66642 27.0666L6.93309 26.8666ZM7.59982 27.3333L7.79982 26.9333L8.13315 27.4L7.59982 27.3333ZM7.99978 28.7332L8.13311 29.1999L8.5331 28.7999L7.99978 28.7332ZM8.79976 29.4L8.9331 29.6666L9.1331 29.4H8.79976ZM9.86643 30.2L9.66642 30.3333L9.93309 30.4666L9.86643 30.2ZM10.1331 30.0666L10.3331 29.9333L10.3998 30.1999L10.1331 30.0666ZM10.8664 30.2L10.6664 30.3333L10.9331 30.4666L10.8664 30.2ZM9.73309 31.7999L9.93309 31.9333L9.66642 32.0666L9.73309 31.7999ZM5.93311 29.6666L6.06644 29.9332L6.26643 29.6666H5.93311ZM7.26648 28.3333L7.39981 28.1333L7.46648 28.3999L7.26648 28.3333ZM7.33314 30.6666L7.13314 30.5333V30.8L7.33314 30.6666ZM7.73311 28.1333L7.59978 27.8666H7.93311L7.73311 28.1333ZM8.19982 28.2666L8.33315 28.5333L8.53315 28.2666H8.19982ZM6.5331 27.7333L6.66643 27.5333L6.73309 27.8666L6.5331 27.7333ZM10.4664 30.8666V30.5333L10.7331 30.7333L10.4664 30.8666ZM11.6665 31.1333L11.4665 31.1999L11.5998 31.3999L11.6665 31.1333ZM10.9332 30.6666L11.1331 30.5999L11.0665 30.8666L10.9332 30.6666ZM15.5998 32.5999L15.3998 32.6666L15.5331 32.8666L15.5998 32.5999ZM14.3998 32.1999L14.6665 32.1333L14.5998 32.3999L14.3998 32.1999ZM11.5332 32.6666L11.3998 32.4L11.1998 32.6666H11.5332ZM15.1331 35.7333L15.2664 35.9333H14.9331L15.1331 35.7333ZM11.1331 31.9333L10.9997 31.7333L10.8664 31.9333H11.1331ZM13.1998 31.7333L12.8665 31.8666V31.5999L13.1998 31.7333ZM13.9998 31.7999V32.1332L14.2664 31.9999L13.9998 31.7999ZM14.9331 32.4666L15.1332 32.3999L15.0665 32.7333L14.9331 32.4666ZM14.2664 33.8L14.1331 33.6L13.9998 33.8H14.2664ZM11.6664 33.8666L11.3331 34V33.7333L11.6664 33.8666ZM12.6665 32.9999L12.3998 33.0666L12.5998 33.2666L12.6665 32.9999ZM14.7998 33.3333L14.9331 33.5333H14.6664L14.7998 33.3333Z" fill="#A84D3B"/>
<path d="M22.9331 8.80008C22.9331 8.80008 24.8664 11.9334 25.1997 13.4001C25.5331 14.6667 25.5997 15.9334 25.5997 16.6667C25.5997 19.4667 25.3997 23.4001 25.0664 25.6001C24.3997 29.4001 22.5997 31.6667 20.4664 32.3334C18.3331 33.0001 14.4664 31.6001 11.8664 30.2667C9.6664 29.1334 8.39974 27.9334 8.06641 26.5334C7.73307 25.0667 7.06641 23.2001 7.06641 23.2001L7.19974 18.8667L12.3331 7.93341L22.9331 8.80008Z" fill="#EA9D7D"/>
<path d="M9.73327 20.8667C9.73327 20.8667 13.5999 16.5333 16.0666 15.6C20.7999 13.6667 25.3999 13.8667 25.3999 13.8667L24.6666 11.5333L11.1999 9.73334L8.2666 18.1333L9.73327 20.8667Z" fill="url(#paint1_linear_439:76501)"/>
<ellipse cx="5.66663" cy="22.4667" rx="3.53333" ry="3.8" fill="#EA9D7D"/>
<path fill-rule="evenodd" clip-rule="evenodd" d="M1.7998 22.4666C1.7998 24.6666 3.53314 26.5333 5.66647 26.5333C7.79981 26.5333 9.53314 24.6666 9.53314 22.4666C9.53314 20.2666 7.79981 18.4 5.66647 18.4C3.53314 18.4 1.7998 20.2 1.7998 22.4666ZM2.39984 22.4666C2.39984 20.5333 3.8665 18.9333 5.6665 18.9333C7.46649 18.9333 8.93315 20.4666 8.93315 22.4666C8.93315 24.3999 7.46649 25.9999 5.6665 25.9999C3.8665 25.9999 2.39984 24.3999 2.39984 22.4666Z" fill="#B76349"/>
<ellipse cx="5.7997" cy="22.4667" rx="1.59999" ry="1.66667" fill="url(#paint2_linear_439:76501)"/>
<path d="M9.5331 20.0667L8.39977 21.0667L7.93311 24.8L8.13311 25.8666C8.13311 25.8666 9.7331 25 9.86644 23.2666C9.99977 21.5333 9.5331 20.0667 9.5331 20.0667V20.0667Z" fill="#EA9D7D"/>
<path d="M18.2665 32.6C17.5332 32.6 16.9332 32.4667 15.5998 32.1333C13.4665 31.6 10.4665 29.9333 8.93317 28.4667C7.4665 27 7.59984 25.6 7.59984 25.5333C7.59984 25.4 7.59984 25.2 7.73317 25.2C7.8665 25.2 7.93317 25.3333 7.99984 25.4667C8.0665 25.7333 8.0665 26.8667 9.2665 28.0667C10.6665 29.4667 13.6665 31.0667 15.6665 31.6C17.7332 32.0667 18.1332 32.2 19.6665 32.0667C21.1332 31.9333 21.9998 31.3333 21.9998 31.3333C22.1998 31.2 22.3998 31.1333 22.2665 31.3333C22.1332 31.4667 21.0665 32.3333 19.7332 32.5333C19.1332 32.6 18.7332 32.6 18.2665 32.6Z" fill="#B76349"/>
<path fill-rule="evenodd" clip-rule="evenodd" d="M19.5331 20.0667L18.6664 19.5333L19.6664 19L19.5331 20.0667ZM18.9998 22.1333L18.5331 22.5333L18.3997 21.9333L18.9998 22.1333ZM12.533 21.9334L12.6664 22.2667H12.1997L12.533 21.9334ZM20.3997 22.9333L21.0664 23.3333L21.133 22.5333L20.3997 22.9333Z" fill="#F4B9A6"/>
<path fill-rule="evenodd" clip-rule="evenodd" d="M19.3999 15.2667L19.1999 15.7334L19.7999 15.6667L19.3999 15.2667ZM19.5333 18.4667L18.6666 19.0001V17.8001L19.5333 18.4667ZM21.5332 24.4001L20.6666 24.9334V23.8001L21.5332 24.4001ZM21.5333 23.8668L21.8666 22.9334H20.7333L21.5333 23.8668ZM17.8 22.0668L18.3333 21.9334L18.1333 22.5334L17.8 22.0668ZM18.7333 21.2001L18.1333 21.3334L18.5333 21.8001L18.7333 21.2001ZM18.7999 24.6001L18.5999 24.0667L19.2666 24.1334L18.7999 24.6001ZM18.8666 25.0668L19.3332 25.3334L19.4666 24.8001L18.8666 25.0668ZM21.0666 26.8667L21.5999 26.6667L21.4666 27.3334L21.0666 26.8667ZM19.4667 18.5334L19.9333 18.6001L19.6667 19.0001L19.4667 18.5334ZM20.3999 16.9334L19.9332 16.8668L20.0666 17.3334L20.3999 16.9334ZM16.4666 18.4667L16.5333 17.8667L17.0666 18.2001L16.4666 18.4667ZM17.7999 16.9334L17.3333 17.2668L17.8666 17.6001L17.7999 16.9334ZM15.2666 17.7334H15.5999L15.4666 18.0668L15.2666 17.7334ZM20.6666 26.7334L20.1999 26.8667L20.5333 27.2001L20.6666 26.7334ZM19.6666 26.5334L20.1333 26.4001L20 26.9334L19.6666 26.5334ZM16.1333 23.4668L15.6666 23.5334L15.9333 24.0001L16.1333 23.4668ZM16.8 24.4668L17.2667 24.3334L17.0667 24.8668L16.8 24.4668ZM15.7333 22.0001L15.6666 22.4001L16.1999 22.2668L15.7333 22.0001ZM17.9333 21.0668L18.1333 21.4668H17.6L17.9333 21.0668ZM23 25.3334L23.2666 25.0667L22.8 25.0001L23 25.3334ZM21.3999 24.0668L21.1333 24.0001L21.3999 23.7334V24.0668ZM24.1333 21.2001L24.3999 21.0668L24.1333 20.9334V21.2001ZM23.0666 22.4667L22.7333 22.4001L22.9333 22.1334L23.0666 22.4667Z" fill="#F4B9A6"/>
<path fill-rule="evenodd" clip-rule="evenodd" d="M18.8663 16.7334L19.4663 16.6L18.9997 16.1334L18.8663 16.7334ZM14.333 19.2L14.533 18.8666L14.733 19.2H14.333ZM24.333 21.1334L24.2663 21.4L23.9997 21.2L24.333 21.1334ZM20.6664 23.2667L19.4664 23.6L19.6664 22.2667L20.6664 23.2667ZM18.533 19.0667L18.0664 19L18.133 19.4667L18.533 19.0667ZM14.533 22.0667L15.0664 21.8667V22.2667L14.533 22.0667ZM17.733 17.7333L17.7997 18.3333L18.333 17.9333L17.733 17.7333ZM17.5997 19L17.0664 19.2667L16.9997 18.7333L17.5997 19ZM17.5997 18.3333L17.6663 18.9333L18.1997 18.6L17.5997 18.3333ZM23.0664 17.9333L22.5997 17.7333L23.0664 17.4V17.9333ZM18.5997 20.6L18.333 20.2667L17.9997 20.7333L18.5997 20.6ZM20.3997 26.2667L20.8664 26.1334L20.733 26.6667L20.3997 26.2667ZM18.7996 23.2667L18.6663 23.6H19.133L18.7996 23.2667ZM19.0663 25.2667L19.2663 25.6L18.8663 25.6667L19.0663 25.2667ZM19.933 25.9334L20.1997 25.6667L19.7997 25.5334L19.933 25.9334ZM20.4663 24.8L20.133 25.0667L19.9997 24.6L20.4663 24.8Z" fill="#F4B9A6"/>
<path fill-rule="evenodd" clip-rule="evenodd" d="M20.0665 15.8667L19.7332 16.1334L20.1999 16.2667L20.0665 15.8667ZM22.1332 16.8001L21.6665 16.9334L21.7998 16.4001L22.1332 16.8001ZM18.5999 18.0667L19.0665 18.0001L18.7332 17.6001L18.5999 18.0667ZM20.3332 19.8667L20.8665 19.4L21.1332 20.1334L20.3332 19.8667ZM18.7332 20.3334L18.5332 20.0001H18.9999L18.7332 20.3334ZM14.1332 20.9334L13.8665 20.6001L13.6665 21.0667L14.1332 20.9334ZM20.1332 22.2668L19.7998 22.5334L19.6665 22.0668L20.1332 22.2668ZM20.4665 24.2667L20.0665 24.6001L19.9332 24.0667L20.4665 24.2667ZM18.8665 22.7334L19.1999 22.9334L19.3332 22.6L18.8665 22.7334ZM22.4665 25.9334L22.8665 25.8667L22.7332 26.2667L22.4665 25.9334ZM20.7332 22.1334L20.5999 22.4668L21.0665 22.4001L20.7332 22.1334ZM21.5332 25.8667L21.7998 26.2L21.3332 26.2667L21.5332 25.8667ZM19.4665 27.5334L19.5332 28L19.9332 27.6667L19.4665 27.5334ZM17.9332 25.5334L18.2666 25.4V25.8L17.9332 25.5334ZM18.9332 26.0667L18.8666 26.4667L18.5999 26.3334L18.9332 26.0667ZM17.3998 25.6667L17.6665 25.8L17.7332 25.3334L17.3998 25.6667ZM15.1332 26.5334L15.2665 26.1334L15.5999 26.4667L15.1332 26.5334ZM16.7332 27.6001H16.3332L16.4665 28.0001L16.7332 27.6001ZM14.9999 28.0667L15.3332 28.1334L15.0665 28.4667L14.9999 28.0667ZM19.1332 21.8667L19.9332 21.6667L19.2665 21.0001L19.1332 21.8667ZM18.5999 20.7334L18.9999 21.3333L19.5332 20.6L18.5999 20.7334ZM15.9332 20.3334L15.5332 20.5334L15.9332 20.7334V20.3334ZM19.8665 20.6667L20.1332 20.4L20.2665 20.8L19.8665 20.6667ZM22.0665 19L21.5999 19.1334L21.6665 18.6L22.0665 19ZM18.3332 19.1334L18.8666 19L18.4666 18.6667L18.3332 19.1334ZM15.9999 17.0667L16.3999 16.8667V17.2667L15.9999 17.0667ZM16.9332 23.1334L16.8665 23.6667L17.4665 23.4667L16.9332 23.1334ZM15.7332 23.0001L16.1999 22.9334L15.9999 23.4001L15.7332 23.0001ZM17.1998 24.9334L17.1332 25.4667L17.6665 25.2667L17.1998 24.9334ZM17.8665 23.5334V23L18.4665 23.2L17.8665 23.5334ZM17.3999 24L17.4665 24.5334L17.9999 24.2L17.3999 24ZM16.7999 22.1334V22.5334L16.3999 22.3334L16.7999 22.1334Z" fill="#F4B9A6"/>
<path fill-rule="evenodd" clip-rule="evenodd" d="M16.8662 17L17.2662 16.8V17.2L16.8662 17ZM21.1995 18.0668L20.9995 17.8001L21.4662 17.7334L21.1995 18.0668ZM23.1996 19.2001L22.7329 19.3334L22.7996 18.8001L23.1996 19.2001ZM24.4662 23.1334L24.8662 22.9334L24.5329 22.6668L24.4662 23.1334ZM20.0662 18.0001V18.4668L20.5996 18.3334L20.0662 18.0001ZM19.4662 17.6L19.5329 17.1334L19.9996 17.4L19.4662 17.6ZM19.8662 21.6001L20.6662 22.1334L20.9329 21.1334L19.8662 21.6001ZM22.6662 21.3334L21.7996 21.6L22.0663 20.5334L22.6662 21.3334ZM19.6663 22.0667L19.9329 22.1334L19.8663 21.8001L19.6663 22.0667ZM19.1329 20.5334L19.2662 20.2L19.5996 20.5334H19.1329ZM20.0662 19.2001L19.5996 19.2667L19.8662 19.6667L20.0662 19.2001ZM21.0662 19.4667L21.5329 19.4001L21.3329 19.8667L21.0662 19.4667Z" fill="#F4B9A6"/>
<path fill-rule="evenodd" clip-rule="evenodd" d="M21.1999 16.2667L21.4665 15.7333H20.7999L21.1999 16.2667ZM19.7332 20.0667L20.7332 19.5333L19.6665 18.8667L19.7332 20.0667ZM20.6665 23.3999L20.4665 23.8666L20.0665 23.3999H20.6665ZM19.5998 21.3333L20.4665 20.8666L19.5332 20.2666L19.5998 21.3333ZM20.4665 17.6666L20.1332 17.3999L20.5998 17.2666L20.4665 17.6666ZM21.1998 18.1333L20.7332 18.8666L21.7332 18.9333L21.1998 18.1333ZM21.6665 17.4667L21.8665 17.2L22.1332 17.5333L21.6665 17.4667ZM22.3332 20.0666L22.5999 20.3333L22.7332 19.9333L22.3332 20.0666ZM20.8666 17.0666L21.0666 16.7999L21.3332 17.1333L20.8666 17.0666ZM15.1332 20.7333L14.6665 20.8667L15.0665 21.2667L15.1332 20.7333ZM15.5999 19.1333L15.7999 18.7333L16.1332 19.1333H15.5999ZM16.7999 18.7333L16.7332 18.3333L16.3999 18.6667L16.7999 18.7333ZM16.1998 20.4667L16.2665 20.8667L15.7998 20.8L16.1998 20.4667Z" fill="#F4B9A6"/>
<path fill-rule="evenodd" clip-rule="evenodd" d="M11.5332 11.1333V10.4L12.1999 10.7333L11.5332 11.1333ZM24.3332 12.2L24.5332 12.4L24.5999 12.0666L24.3332 12.2ZM23.3332 12.7333L23.1332 12.5333L23.4666 12.4L23.3332 12.7333ZM18.0665 13.0666L18.1332 12.7333L18.3332 13.0666H18.0665ZM18.0666 13.3333L18.2666 13.6L17.9999 13.6667L18.0666 13.3333ZM20.8666 13.1333L20.6665 12.9333L20.5332 13.2L20.8666 13.1333ZM24.1999 12.5333L23.9332 12.5999L23.9999 12.2666L24.1999 12.5333ZM18.9332 13.1333L18.7332 12.9333L18.5998 13.2L18.9332 13.1333ZM21.7999 12.7333L22.0665 12.9333L21.7332 13.0666L21.7999 12.7333ZM17.7332 13.2667L17.5332 13L17.3999 13.3333L17.7332 13.2667ZM15.6665 12.2L15.5332 12.5333L15.9332 12.4666L15.6665 12.2ZM12.9332 11.5333V11.2L13.2665 11.4L12.9332 11.5333ZM12.7998 12.4666L12.7332 12.7999L13.1332 12.6666L12.7998 12.4666ZM13.1999 13.6L13.1332 13.2L13.5332 13.3333L13.1999 13.6ZM16.3332 12.6666L16.0666 12.4666L15.9332 12.7333L16.3332 12.6666ZM16.5999 12.8666L16.5332 12.3999L17.0666 12.5333L16.5999 12.8666Z" fill="#A84D3B"/>
<path fill-rule="evenodd" clip-rule="evenodd" d="M13.1997 11.3333L13.2664 11.8L13.7998 11.5333L13.1997 11.3333ZM13.8664 12L13.9998 12.5334L14.4664 12.1334L13.8664 12ZM17.7997 13L17.5997 12.6667H18.0664L17.7997 13ZM20.2664 13.0666L20.0664 12.8L20.5331 12.7333L20.2664 13.0666ZM21.2664 13.0667L21.0664 12.7333L21.5331 12.6667L21.2664 13.0667ZM18.9998 12.7334L19.1331 13.2L19.5997 12.8667L18.9998 12.7334ZM14.9998 12.6667L14.8665 12.4L15.2665 12.4667L14.9998 12.6667ZM13.6664 13.6L13.5998 13.9334L13.9331 13.8L13.6664 13.6ZM13.2664 14.1333L13.3331 13.8667L13.5998 14.0667L13.2664 14.1333ZM15.6664 12.6L15.7998 12.7333L15.8664 12.6H15.6664ZM17.2664 12.9333L17.1331 12.8L17.3998 12.7333L17.2664 12.9333ZM19.6664 13L19.7331 13.1333L19.8664 13H19.6664ZM12.7998 14.1333L12.9998 14.0667L12.9331 14.2667L12.7998 14.1333ZM12.8664 13.8L13.1331 13.7333L13.0664 14L12.8664 13.8Z" fill="#A84D3B"/>
<path fill-rule="evenodd" clip-rule="evenodd" d="M12.5999 11.7333V11.5333L12.8666 11.6667L12.5999 11.7333ZM13.5333 11.9333L13.2666 11.7999L13.5333 11.5999V11.9333ZM12.8666 13.4667L12.9333 13.8L12.5333 13.7333L12.8666 13.4667ZM15.1999 12.3333L15.4665 12.3999L15.3999 12.0666L15.1999 12.3333ZM13.1999 12.3333L13.4665 12.3999L13.3999 12.0666L13.1999 12.3333ZM13.1333 14.9333V14.7333L13.3333 14.8666L13.1333 14.9333ZM12.5333 12.2L12.2666 12.2666L12.4666 12.4666L12.5333 12.2ZM12.5999 14.5333V14.0667L13.0665 14.2667L12.5999 14.5333Z" fill="#A84D3B"/>
<path fill-rule="evenodd" clip-rule="evenodd" d="M12.3998 10.8L12.4665 11.3333L12.9331 11.2L12.3998 10.8ZM12.9331 12L12.7331 12.2L12.6665 11.9333L12.9331 12ZM12.9998 14.6L12.7331 14.8L12.6665 14.4666L12.9998 14.6ZM12.3332 12.9333L12.5998 12.7333L12.1999 12.5333L12.3332 12.9333ZM14.0665 12.8667L13.8665 12.7333L14.1331 12.6L14.0665 12.8667ZM12.7331 15.5333L12.9998 15.3999L12.7331 15.1999V15.5333ZM11.9998 16.9999V16.6666L12.2665 16.8666L11.9998 16.9999ZM11.9998 12.1333L11.7998 11.9333L12.1331 11.8L11.9998 12.1333ZM14.4665 11.8L14.5998 12.4L15.1331 12.0666L14.4665 11.8ZM12.1998 11.7333L11.9998 11.5333L12.3331 11.4666L12.1998 11.7333ZM16.1331 13.0666L16.4665 13.1999L16.3998 12.8666L16.1331 13.0666ZM22.7332 12.9999L22.4665 12.8666L22.7332 12.6666V12.9999ZM12.5332 13.5333L12.9998 13.3333L12.5332 12.9333V13.5333ZM11.8665 11.2667L12.1331 10.8L12.3998 11.3333L11.8665 11.2667Z" fill="#A84D3B"/>
<path fill-rule="evenodd" clip-rule="evenodd" d="M11.6001 11.4001L11.8668 11.2667V11.6001L11.6001 11.4001ZM13.2 12.8001L13.4667 12.8667L13.2667 13.0667L13.2 12.8001ZM14.2667 11.8001L14.2 12.0667L14.4667 12.0001L14.2667 11.8001ZM12.0667 11.8667L12.5334 12.0667L12.0667 12.4V11.8667Z" fill="#A84D3B"/>
<path fill-rule="evenodd" clip-rule="evenodd" d="M12.5998 11.3333L12.7332 11.6L12.8665 11.3333H12.5998ZM11.8665 11.5333L11.7998 11.7333L12.0665 11.6666L11.8665 11.5333ZM13.7331 11.5333L14.0664 11.8L13.6664 12L13.7331 11.5333Z" fill="#A84D3B"/>
<path fill-rule="evenodd" clip-rule="evenodd" d="M5.8667 20.9334L6.20004 20.8667L6.0667 21.2L5.8667 20.9334ZM7.33337 22.5334V22.8L7.0667 22.6L7.33337 22.5334Z" fill="#964C38"/>
<path fill-rule="evenodd" clip-rule="evenodd" d="M5.1333 21L5.53329 20.8667L5.46663 21.3334L5.1333 21ZM5.80003 21.3334L6.13336 20.9334L6.33336 21.4667L5.80003 21.3334ZM7.26663 21.8L7.06662 22L7.33329 22.0667L7.26663 21.8ZM6.46666 21.7334L6.66666 21.5334L6.73332 21.8001L6.46666 21.7334Z" fill="#964C38"/>
<path fill-rule="evenodd" clip-rule="evenodd" d="M5.3999 21.6L5.5999 21.4L5.66657 21.6667L5.3999 21.6ZM6.93322 22.2L7.06655 22L7.19989 22.2666L6.93322 22.2Z" fill="#964C38"/>
<path fill-rule="evenodd" clip-rule="evenodd" d="M5 21.5334L5.26667 21.2667L5.46668 21.7334L5 21.5334ZM6.53338 22.5334L6.33338 22.4668L6.60005 22.3334L6.53338 22.5334ZM7.13336 21.6001L7.0667 21.7334H7.2667L7.13336 21.6001ZM7.20004 22.4001L7.26671 22.2667L7.40005 22.4001H7.20004Z" fill="#964C38"/>
<path fill-rule="evenodd" clip-rule="evenodd" d="M6.46676 20.9334L6.26676 21.1334L6.20009 20.8667L6.46676 20.9334ZM4.6001 21.4L4.86677 21.1334L5.0001 21.5334L4.6001 21.4ZM5.33342 22.3333L5.26675 22.2H5.40008L5.33342 22.3333ZM5.73349 22.6L5.60016 22.6667L5.80016 22.7334L5.73349 22.6ZM5.53344 21.1333L5.33344 21.2667L5.60011 21.3333L5.53344 21.1333ZM5.00012 21.2L5.20012 21.2667L5.00012 21.4667V21.2Z" fill="#964C38"/>
<path fill-rule="evenodd" clip-rule="evenodd" d="M6.46662 21.4667L6.53329 21L6.93328 21.3333L6.46662 21.4667ZM5.2 21.2667V21.0667L5 21.1334L5.2 21.2667ZM6.80001 21.6L6.93334 21.8L7.06667 21.5334L6.80001 21.6Z" fill="#964C38"/>
<path fill-rule="evenodd" clip-rule="evenodd" d="M5.9332 20.8667L5.7332 20.8V21L5.9332 20.8667ZM6.53322 21.4667L6.33322 21.2667L6.59989 21.2L6.53322 21.4667ZM4.59986 22.1333L4.7332 21.9333L4.79986 22.1333H4.59986ZM5.66654 22.2L5.5332 22.0667L5.79987 22L5.66654 22.2ZM6.06652 22.8667L5.93318 23.0667L6.19985 23.1333L6.06652 22.8667ZM4.5332 21.6667L4.66654 21.4667L4.79987 21.6667H4.5332Z" fill="#964C38"/>
<path fill-rule="evenodd" clip-rule="evenodd" d="M4.7332 21.8H4.5332L4.59987 21.6L4.7332 21.8ZM5.06651 22.8L5.26651 22.8667L5.13318 23.0667L5.06651 22.8Z" fill="#964C38"/>
<path fill-rule="evenodd" clip-rule="evenodd" d="M5.59993 21.0667L5.6666 21.2667L5.86659 21.1333L5.59993 21.0667ZM5.99994 21.5333L5.79993 21.6L5.99994 21.8V21.5333ZM4.59995 21.8666L4.53329 21.6666L4.46662 21.8666H4.59995ZM4.4666 22.5333L4.39993 22.3333L4.33327 22.5999L4.4666 22.5333ZM4.93328 21.8666V21.6666L5.13328 21.7333L4.93328 21.8666ZM4.53326 22.2666L4.39993 21.9999L4.2666 22.2666H4.53326ZM4.66656 22.5333V22.3333L4.86656 22.3999L4.66656 22.5333ZM6.99993 22.7333L6.93326 22.5333L7.19993 22.5999L6.99993 22.7333ZM6.13322 21.6L6.26655 21.8L6.06655 21.8666L6.13322 21.6Z" fill="#964C38"/>
<path fill-rule="evenodd" clip-rule="evenodd" d="M24.4665 15.9333C24.5332 16 24.6665 16 24.7332 16C24.8665 16 24.9998 15.9333 25.1332 15.8C25.2603 15.5754 25.2035 15.2917 24.9998 15.1333C24.1761 14.5449 23.1445 14.7874 22.8679 14.8525C22.8311 14.8611 22.8076 14.8666 22.7998 14.8666C22.5331 14.9333 22.3998 15.2 22.4665 15.4666C22.5331 15.7333 22.7998 15.8666 23.0665 15.8C23.0761 15.8 23.1012 15.7944 23.1386 15.786C23.3593 15.7367 24.0104 15.5912 24.4665 15.9333ZM14.5998 17.3333C14.6664 17.4 14.7998 17.4 14.8664 17.4C14.964 17.4 15.0616 17.3642 15.1854 17.3189C15.2307 17.3024 15.2795 17.2845 15.3331 17.2666C15.3331 17.2 16.1331 16.0666 17.9331 16.2C18.1998 16.2 18.4664 16 18.4664 15.7333C18.4664 15.4666 18.2664 15.2 17.9998 15.2C15.7666 15.0139 14.6878 16.3863 14.4949 16.6316C14.4805 16.65 14.4711 16.662 14.4664 16.6666C14.3393 16.8912 14.3961 17.1749 14.5998 17.3333Z" fill="#AF361A"/>
<ellipse cx="17.2663" cy="20" rx="0.933342" ry="0.933336" fill="#4F2B23"/>
<ellipse cx="24.1999" cy="19.5334" rx="0.933342" ry="0.933331" fill="#4F2B23"/>
<path d="M21.1334 25.6667C20.9334 25.6667 20.7334 25.5333 20.6667 25.2667C20.6001 25 20.8001 24.7333 21.0667 24.7333C21.0667 24.7333 21.8001 24.6 21.8667 24C21.9334 23.4 21.3334 21.7333 21.0001 20.8667C20.8667 20.6 21.0001 20.3333 21.2667 20.2667C21.5334 20.1333 21.8001 20.2667 21.8667 20.5333C22.0001 20.8 22.8667 23.0667 22.8001 24.1333C22.7334 25.1333 21.8001 25.6667 21.2667 25.7333C21.2001 25.6667 21.1334 25.6667 21.1334 25.6667Z" fill="#B4603F"/>
<path d="M18.8666 28.4667C16.3332 28.3334 15.2666 26.5334 14.9999 25.5334C14.9332 25.2667 15.0666 25 15.3332 24.9334C15.5999 24.8667 15.8666 25 15.9332 25.2667C15.9332 25.3334 16.4666 27.3334 18.8666 27.4667C19.1333 27.4667 19.3333 27.7334 19.3333 27.9334C19.3333 28.2667 19.1333 28.4667 18.8666 28.4667Z" fill="#CF7653"/>
<path fill-rule="evenodd" clip-rule="evenodd" d="M14.5332 21.0667C14.5332 23.4667 15.9999 25.4667 17.8665 25.4667C19.6666 25.4667 21.1999 23.4667 21.1999 21.0667C21.1999 18.6667 19.6666 16.6667 17.8665 16.6667C16.0665 16.6667 14.5332 18.6667 14.5332 21.0667ZM15.1999 21.0667C15.1999 19 16.3999 17.3334 17.8665 17.3334C19.3332 17.3334 20.5332 19 20.5332 21.0667C20.5332 23.1334 19.3332 24.8 17.8665 24.8C16.3999 24.8 15.1999 23.1334 15.1999 21.0667Z" fill="white"/>
<path fill-rule="evenodd" clip-rule="evenodd" d="M20.4001 19.8L21.0001 20.1334C21.0001 20.1334 21.2001 19.7334 21.4668 19.8C21.8668 19.8 22.2001 20.0667 22.2001 20.0667L22.6001 19.5334C22.6001 19.4667 22.1334 19.1334 21.4668 19.1334C20.8001 19.1334 20.4001 19.8 20.4001 19.8ZM9.82476 19.298L9.71143 19.9553L14.7114 20.822L14.8248 20.1647L9.82476 19.298Z" fill="white"/>
<path d="M7.86645 4.33335C7.86645 4.33335 4.53312 3.00002 1.86646 7.66669C-1.06688 12.8667 2.73312 19.7334 2.73312 19.7334C2.73312 19.7334 3.86645 18.0667 6.06645 18.4C7.86645 18.6667 8.39978 19.6667 8.93312 20.2667C9.46645 20.8 11.5998 20.3334 12.3331 17.8667C12.8664 15.9334 12.8664 14.0667 12.1998 12.7334C11.5331 11.4 10.9331 9.86669 11.8664 10.5334C12.7998 11.2 14.3998 12.0667 16.8664 12.4667C19.3331 12.8667 24.0664 13.2667 26.4664 11.2C28.8664 9.20002 28.9998 7.46669 28.9331 6.06669C28.8664 4.66669 28.1331 3.86669 28.1331 3.86669C28.1331 3.86669 26.7998 4.60002 26.1331 4.66669C25.4664 4.73335 24.9331 4.80002 24.9998 3.93335C25.1331 1.93335 23.9998 1.26669 23.9998 1.26669C23.9998 1.26669 23.5331 1.86669 22.9998 2.20002C21.8664 2.86669 21.1998 2.93335 20.0664 2.53335C18.5998 2.06669 17.0664 0.733354 14.0664 0.666687C11.9331 0.733354 9.53312 1.86669 7.86645 4.33335Z" fill="#C94112"/>
<path fill-rule="evenodd" clip-rule="evenodd" d="M15.7334 1.73341L15.4667 0.933411L16.4 1.13341L15.7334 1.73341ZM22.5334 3.3334L21.8667 2.80006L22.2668 2.66673L22.7334 2.46673L22.5334 3.3334ZM24 1.40011L23.6 1.93344L24.2667 2.00011L24 1.40011ZM20.6668 4.26676L21.4001 3.73343V4.8001L20.6668 4.26676ZM19.0667 2.73341L18.8667 3.06674L19.3334 3.13341L19.0667 2.73341ZM13.1334 1.66671L13.4 1.20005L13.7334 1.80005L13.1334 1.66671ZM14.0001 1.73344L13.8001 2.26678L14.3334 2.33344L14.0001 1.73344ZM13.3334 2.66673L12.7334 2.00006L13.8667 1.80006L13.3334 2.66673Z" fill="#FF593E"/>
<path fill-rule="evenodd" clip-rule="evenodd" d="M12.7336 2.00003L12.0669 1.46669L12.9336 1.13336L12.7336 2.00003ZM14.2669 2.13339L15.0002 2.06673L14.6002 2.86673L14.2669 2.13339ZM22.4002 4.66666L22.1335 4.86666L22.4002 5.06666V4.66666ZM19.7336 3.46669L20.0002 3.2667L20.0669 3.66669L19.7336 3.46669ZM20.6002 4.00005L20.8669 3.66671L20.4002 3.53338L20.6002 4.00005ZM23.6669 4.60006L23.9336 4.40006L24.0003 4.73339L23.6669 4.60006ZM23.0669 3.59999L22.7335 3.26666L22.5335 3.79999L23.0669 3.59999ZM24.1336 2.13338L24.4669 2.46671L23.9336 2.73338L24.1336 2.13338Z" fill="#FF593E"/>
<path fill-rule="evenodd" clip-rule="evenodd" d="M15.0665 1.2667L14.5998 0.866699L14.3998 1.53337L15.0665 1.2667ZM18.3332 2.13337L17.9332 1.73337L17.7332 2.33337L18.3332 2.13337ZM20.3332 2.73333L20.0665 3.2L19.7332 2.66667L20.3332 2.73333ZM20.6665 3.46668L20.3332 3.13335L20.1332 3.66668L20.6665 3.46668ZM21.8666 3.8L22.1999 4.13333L21.6666 4.4L21.8666 3.8ZM20.2665 4.00007L20.6665 4.3334L20.0665 4.60007L20.2665 4.00007ZM18.7999 2.2667L19.1999 2.60003L18.6665 2.80003L18.7999 2.2667ZM14.3332 1.2L13.8665 1.66667L13.6665 0.933334L14.3332 1.2ZM16.8665 1.46667L16.5332 1.13333L16.3332 1.73333L16.8665 1.46667ZM15.3332 1.93336L14.8665 1.40003L15.7332 1.20003L15.3332 1.93336Z" fill="#FF593E"/>
<path fill-rule="evenodd" clip-rule="evenodd" d="M14.9334 0.800049L15.4001 0.933382L15.0001 1.26672L14.9334 0.800049ZM12.6001 0.866766L13.0668 1.4001L13.4668 0.800099L12.6001 0.866766ZM14.8001 2.20011L14.4001 1.60012L15.2001 1.40012L14.8001 2.20011ZM15.0668 2.66673L14.9334 2.00007L15.7334 2.20007L15.0668 2.66673ZM23.3335 2.80007L23.2668 2.20007L22.7335 2.5334L23.3335 2.80007ZM20.6001 3.53338L20.3334 2.86672L21.1334 3.00005L20.6001 3.53338ZM19.1334 2.3334L19.3334 3.06673L19.8668 2.60007L19.1334 2.3334ZM18.4001 2.60005L18.2668 1.86672L19.0001 2.20005L18.4001 2.60005Z" fill="#FF593E"/>
<path fill-rule="evenodd" clip-rule="evenodd" d="M13.4667 0.800049L13.9333 0.933382L13.5333 1.33338L13.4667 0.800049ZM12.2666 1.06668H12.7333L12.5333 1.53335L12.2666 1.06668ZM21.8 6.2667L21.6 6.4667L21.8667 6.60003L21.8 6.2667ZM23 5.33335L23.2 5.46668L22.9333 5.60002L23 5.33335ZM22.7333 4.33333L22.8667 4.66667L23.0667 4.4L22.7333 4.33333ZM19.6667 3.33333L19.5333 3H19.8667L19.6667 3.33333ZM22.1333 5.33335L21.9333 5.53335L22.2 5.60002L22.1333 5.33335ZM14.8 5.59998L15 5.39998L15.0666 5.66665L14.8 5.59998ZM22.0666 3L21.6 3.4L22.2 3.73333L22.0666 3ZM21.1999 5.80003L21.4666 5.93337L21.1999 6.0667V5.80003ZM21.6666 5.26665L21.8666 5.33332L21.8 5.06665L21.6666 5.26665ZM20.2666 5.26665L19.8666 5.19998L20.1333 4.79998L20.2666 5.26665Z" fill="#FF593E"/>
<path fill-rule="evenodd" clip-rule="evenodd" d="M14.4002 1.33337L14.6669 0.933366L14.0669 0.866699L14.4002 1.33337ZM17.6002 1.6667L17.3335 2.0667L17.0002 1.4667L17.6002 1.6667ZM21.8002 2.86677L21.6002 3.4001L21.1335 2.93343L21.8002 2.86677ZM19.6002 5.80008V5.53341L19.8669 5.73341L19.6002 5.80008ZM21.0669 3.80007L21.3336 3.40006L20.8002 3.26673L21.0669 3.80007ZM22.4002 6.6001V6.33343L22.6669 6.53343L22.4002 6.6001ZM20.8669 6.33343L20.5336 6.4001L20.7336 6.6001L20.8669 6.33343ZM15.7336 6.86677L16.0669 6.8001L15.9336 7.13343L15.7336 6.86677ZM19.8002 6.93338L19.9335 7.20005L20.0669 6.93338H19.8002ZM23.6002 4.06673L23.4002 3.7334L23.8002 3.66673L23.6002 4.06673ZM18.8669 6.5334L19.0669 6.20006H18.6669L18.8669 6.5334ZM16.2669 1.46672L16.8669 1.40005L16.6002 2.06672L16.2669 1.46672ZM20.0669 4.1334L20.3336 3.60006H19.6669L20.0669 4.1334ZM15.5335 4.73338L16.0669 4.40005V5.06672L15.5335 4.73338ZM18.0002 5.26673L17.5335 5.5334L18.0002 5.80007V5.26673ZM16.3336 5.86671L16.2002 5.66671L16.4669 5.60005L16.3336 5.86671Z" fill="#FF593E"/>
<path fill-rule="evenodd" clip-rule="evenodd" d="M17.7334 1.8667L16.9333 2.2667L17.6 2.8667L17.8667 2.4667L17.7334 1.8667ZM14.6 2.73335L14.4667 3.40002L15.2 3.13335L14.6 2.73335ZM14.9333 4.2L15.0666 4L15.2 4.2H14.9333ZM17.0667 5.86673L17.2667 5.9334L17.0667 6.06673V5.86673ZM16.5333 4.86668L16.3333 5.20002L16.8 5.26668L16.5333 4.86668ZM18 7.26668L18.2 7.33335L18.0667 7.53335L18 7.26668ZM14.1333 5.93338L14 5.40005L14.6 5.53338L14.1333 5.93338ZM16.5333 3.00002L17.0666 2.73335L17.2 3.06669L17 3.46669L16.5333 3.00002Z" fill="#FF593E"/>
<path fill-rule="evenodd" clip-rule="evenodd" d="M16.4002 1.80002L16.0002 1.66669L15.5336 1.80002L15.9336 2.46669L16.4002 1.80002ZM16.2668 2.26672L17.3335 2.40005L16.6669 3.13339L16.2668 2.26672ZM17.1335 3.60002L16.6669 3.33335L16.2668 3.40002L16.4002 4.33335L17.1335 3.60002ZM13.6669 5.39999L13.0669 5.73332L13.7336 6.06665L13.6669 5.39999ZM18.9335 3.13337L19.8002 3.33337L19.0669 4.0667L18.9335 3.13337Z" fill="#FF593E"/>
<path d="M20.1333 3.93334L19.2666 3.73334L19.3999 4.66667L20.1333 3.93334Z" fill="#FF593E"/>
<path fill-rule="evenodd" clip-rule="evenodd" d="M14.0002 2.40002L14.4668 3.06669L13.4668 3.20002L14.0002 2.40002ZM15.0001 3.13333L15.4001 2.79999L15.8668 3.46666L14.8668 3.53333L15.0001 3.13333ZM19.3335 4.26669L19.6668 4.80002L18.9335 4.86669L19.3335 4.26669ZM15.1334 4.00006L14.5335 3.66673L14.4001 4.46672L15.1334 4.00006ZM18.5335 5.06669L18.8001 4.46669L18.0001 4.40002L18.5335 5.06669ZM17.7335 4.86672L17.1335 5.13339L17.2668 4.33339L17.7335 4.86672ZM22.8001 3.20001L23.2668 3.06667L22.8668 2.66667L22.8001 3.20001ZM13.9335 5.13334L13.3335 5.33334L13.4668 4.60001L13.9335 5.13334Z" fill="#FF593E"/>
<path fill-rule="evenodd" clip-rule="evenodd" d="M23.6667 2.46675L23.3334 2.13341L23.8667 1.93341L23.6667 2.46675ZM11.2001 5.00006L10.7334 5.20006L10.8667 4.60006L11.2001 5.00006ZM16.9334 4.73338L16.8001 4.13338L16.2001 4.53338L16.9334 4.73338ZM16.0001 2.53341L16.8668 2.80008L16.1335 3.46675L16.0001 2.53341ZM18.8668 2.9334L18.0001 2.7334L18.1335 3.66673L18.8668 2.9334ZM17.8668 3.7334L18.6668 3.9334L17.9334 4.66673L17.8668 3.7334ZM17.6667 3.80003L17.2001 4.0667L17.6001 4.4667L17.6667 3.80003ZM15.5334 5.46671L15.7334 5.66671L15.4667 5.73338L15.5334 5.46671Z" fill="#FF593E"/>
<path fill-rule="evenodd" clip-rule="evenodd" d="M17.9998 2.80007L18.0664 2.46674L18.3331 2.66674L17.9998 2.80007ZM16.8665 4.1334L16.9998 4.46673L17.2665 4.1334H16.8665ZM15.3331 4.86675L14.9998 4.46675L14.7998 5.06675L15.3331 4.86675ZM18.9998 4.20009L18.7998 3.66675L18.3331 4.13342L18.9998 4.20009ZM15.9331 3.53337L16.4664 3.73337L15.9331 4.20004V3.53337Z" fill="#FF593E"/>
<path fill-rule="evenodd" clip-rule="evenodd" d="M17.7333 2.80005L17.5333 3.00005H17.8L17.7333 2.80005ZM17.4 3.13333L18 3V3.86667L17.3333 3.4L17.4 3.13333ZM14.2667 3.00002L14.7333 3.20002L14.2667 3.60002V3.00002ZM15.4 3.53332L15.9333 3.79998L15.4 4.19999V3.53332ZM18.6667 3.53336L18.6 3.33336L18.3333 3.53336H18.6667ZM19.4 6.40005V6.06671L19.7333 6.26671L19.4 6.40005ZM18.0666 6.53333L18.2 6.8L18.3333 6.53333H18.0666ZM19 5.66667L18.6667 5.8V5.53333L19 5.66667ZM17.8666 4.2667L17.9333 3.93337L17.5333 4.00003L17.8666 4.2667ZM18.1333 4.46665L18.2667 4.26665L18.4667 4.46665H18.1333ZM17.1333 5.33335L17 5.60002H17.2667L17.1333 5.33335ZM18.8667 2.93338L19 3.06672L18.7333 3.20005L18.8667 2.93338ZM21.2 5.13335L21.2667 4.80002L20.9334 4.86668L21.2 5.13335ZM20.6667 5.60005L20.6 5.86671L20.3333 5.60005H20.6667ZM14.2667 6.80002L14.3333 6.46668L14 6.53335L14.2667 6.80002ZM20.4667 4.80003L20.4 4.40003L20.8667 4.53337L20.4667 4.80003Z" fill="#FF593E"/>
<path fill-rule="evenodd" clip-rule="evenodd" d="M15.5335 3.1334L15.1335 2.66674L15.8002 2.46674L15.5335 3.1334ZM18.3335 3.73343L18.2669 3.4001L18.6669 3.53343L18.3335 3.73343ZM20.6669 5.20007L20.5336 5.00007L20.4002 5.26674L20.6669 5.20007ZM13.5336 7.00007L13.7336 7.20007L13.4002 7.26674L13.5336 7.00007ZM18.2669 5.0667L18.0002 5.13337L18.2669 5.33337V5.0667ZM17.8002 4.53338L17.8669 4.80005L17.6002 4.73338L17.8002 4.53338ZM3.26686 5.80005L4.20021 6.13339L4.13354 5.00005L3.26686 5.80005ZM12.7336 6.00008L13.0669 5.93342L12.9336 6.26675L12.7336 6.00008ZM10.8669 3.8667L10.1335 4.00003L10.6669 4.6667L10.8669 3.8667ZM8.73357 5.46675L8.93356 5.73342H8.53357L8.73357 5.46675ZM11.4669 6.20005L11.2669 5.80005L10.9336 6.13339L11.4669 6.20005ZM5.93355 6.1334V5.46674L6.66689 5.86674L5.93355 6.1334ZM12.0003 2.73343V3.4001L12.6669 3.13343L12.0003 2.73343ZM13.1336 3.0667L13.2002 2.6667L13.6002 2.8667L13.1336 3.0667ZM13.0669 3.46672V3.86672L13.4669 3.73339L13.0669 3.46672ZM1.3336 9.06677L1.73359 8.06676L2.26691 9.0001L1.3336 9.06677ZM1.2669 9.1334L1.06689 10.0001L1.8669 9.60007L1.2669 9.1334ZM3.13359 10.8001V10.4001L3.53358 10.6668L3.13359 10.8001ZM2.20023 10.3334V10.6667L2.60023 10.5334L2.20023 10.3334ZM8.00026 4.40007L8.26692 3.86673L8.66692 4.40007H8.00026ZM7.13354 5.9334L7.00021 5.66674L6.73354 5.9334H7.13354ZM6.66686 6.00008L6.93353 6.53342L6.26686 6.46675L6.66686 6.00008ZM11.5335 4.26676L11.2669 4.86677H12.0002L11.5335 4.26676ZM10.0003 6.20003V5.8667L10.3336 6.0667L10.0003 6.20003Z" fill="#FF593E"/>
<path fill-rule="evenodd" clip-rule="evenodd" d="M11.6667 3.13338L11 2.86671L11.6 2.33337L11.6667 3.13338ZM13.4667 4.06669L13.5334 3.20002L14.4667 3.73336L13.4667 4.06669ZM4.86671 9.00003V8.73336L5.20004 8.93336L4.86671 9.00003ZM4.26666 10.4L4.59999 10.4667L4.33333 10.7333L4.26666 10.4ZM2.86672 9.13339L2.80005 9.86672L3.46672 9.60006L2.86672 9.13339ZM1.8667 9.86672V9.13339L2.53337 9.60006L1.8667 9.86672ZM2.60002 11.2667L2.53335 11.6001L2.93336 11.4667L2.60002 11.2667ZM12.0667 4.13339L12.8 4.40006L12.7333 3.46673L12.0667 4.13339ZM13.1334 2.93334L12.6 3.00001L12.9334 3.53334L13.1334 2.93334ZM4.20002 10.1334H3.93335L4.13336 9.86671L4.20002 10.1334ZM4.20006 8.60002V8.80002L4.40006 8.66669L4.20006 8.60002ZM6.86672 9.26674L7.06672 9.13341V9.40008L6.86672 9.26674ZM4.06673 11.6L3.86673 11.7333L4.06673 11.8667V11.6ZM2.86673 12.4667L3.00006 12.3334L3.06673 12.6001L2.86673 12.4667ZM5.66673 8.93336L5.7334 9.13336L5.9334 8.93336H5.66673ZM4.60004 9.66671L4.46671 9.33338H4.86671L4.60004 9.66671ZM7.40003 8.80001L7.26669 8.86668L7.46669 9.00001L7.40003 8.80001ZM12.5333 4.46671L12.8 4.73337L12.4 4.86671L12.5333 4.46671ZM23.8 3.26671L24.1334 3.53338L24.2 3.13338L23.8 3.26671ZM26.2667 5.46673L25.8667 4.86672H26.2L26.6667 4.80006L26.2667 5.46673ZM28.1334 4.00004L27.6 4.40004L28.2 4.66671L28.1334 4.00004ZM25.4 6.86672L25.7333 6.80006L25.6667 7.13339L25.4 6.86672ZM27.3334 6.86667L27.0001 7.00001L27.2667 7.26667L27.3334 6.86667ZM26.4667 5.46668L26.7333 5.93334L26.1333 6.00001L26.4667 5.46668ZM28.3334 5.20003L28.0667 4.80003L27.7334 5.26669L28.3334 5.20003ZM25.4667 5.80002L25.7333 6.20002L25.1333 6.26669L25.4667 5.80002ZM25.0667 5.06669L24.8001 4.60003L24.5334 5.13336L25.0667 5.06669ZM27.2667 4.46674V5.06674L26.6667 4.73341L27.2667 4.46674ZM26.2667 7.73337L26.1334 7.53337L26 7.80004L26.2667 7.73337ZM26.2 6.86669V6.53336L26.5334 6.66669L26.2 6.86669ZM25.3334 7.33338L25.0667 7.46671L25.3334 7.66671V7.33338ZM25.0667 4.93336L25.7334 4.86669L25.4 5.53336L25.0667 4.93336Z" fill="#FF593E"/>
<path fill-rule="evenodd" clip-rule="evenodd" d="M10.6001 2.33335L10.2667 2.80001L9.86674 2.20001L10.6001 2.33335ZM9.73339 3.13336L9.86673 2.80003L10.0667 3.13336H9.73339ZM10.2667 2.9333L10.1334 3.19996L10.4667 3.26663L10.2667 2.9333ZM7.46669 4.26665L7.53336 4.86664L8.20004 4.53331L7.46669 4.26665ZM27.2667 4.53331L27.5334 4.93331L27.8667 4.53331H27.2667ZM27 5.4L26.5334 5.46666L26.7334 4.93333L27 5.4ZM25.0001 5.80003L24.8001 5.6667L25.0001 5.4667V5.80003ZM25.0667 7.2667L24.8667 7.13336L25.0667 7.00003V7.2667ZM26.9334 6.13335L27.0667 6.53335L27.3334 6.13335H26.9334ZM27.7334 6.1333L27.4667 5.79997L27.9334 5.7333L27.7334 6.1333ZM3.60004 7.9333L3.40003 7.59996H3.80004L3.60004 7.9333ZM2.7334 7.13333L3.00007 7.66666L3.40007 7.06666L2.7334 7.13333ZM3.40004 6.66663L2.93336 6.19997L3.60004 5.9333L3.40004 6.66663ZM13.4001 4.19998L12.7334 4.06664L12.9334 4.79998L13.4001 4.19998ZM12.4001 4.9333L12.9334 5.06663L12.5334 5.59997L12.4001 4.9333ZM19.6667 5.13335L19.0667 5.00001L19.2667 5.66668L19.6667 5.13335Z" fill="#FF593E"/>
<path fill-rule="evenodd" clip-rule="evenodd" d="M10.8667 2.13341L10.4667 2.33341L10.4 1.93341L10.8667 2.13341ZM9.73337 2.33341L9.93336 2.93341L9.20004 2.80008L9.73337 2.33341ZM9.93338 3.06678L10.3334 3.53344L9.66672 3.73344L9.93338 3.06678ZM9.40002 3.60009L9.73335 3.06676L9.06668 2.93343L9.40002 3.60009ZM11.9333 2.80009L11.6 2.73343L11.8667 2.40009L11.9333 2.80009ZM11 2.80011L10.4667 2.60011L10.5333 3.20011L11 2.80011ZM12.8 2.00006L12 2.33339L12.6667 3.00006L12.8 2.00006ZM2.59999 11.0001V10.7335L2.93332 10.9335L2.59999 11.0001ZM3.13332 7.53339L3.26665 7.80006L3.39999 7.53339H3.13332ZM1.53339 11.6668L1.80005 11.6001L1.73338 11.8668L1.53339 11.6668ZM2.20001 11.2667L2.13335 11.0001L1.93335 11.2667H2.20001ZM2.80002 8.93341L2.20004 8.53341L2.93335 8.13341L2.80002 8.93341ZM4.60003 7.33344L4.86669 7.40011V7.06677L4.60003 7.33344ZM2.46674 6.86673L2.80007 6.3334L3.20007 7.00006L2.46674 6.86673ZM3.66671 8.86676L3.60004 9.33343L4.13338 9.13343L3.66671 8.86676ZM3.73337 6.33341L4.26671 6.40008L3.8667 6.93341L3.73337 6.33341ZM5.13338 7.80009L4.53338 7.86676L4.86672 8.40009L5.13338 7.80009ZM3.73336 7.06674L4.33337 7.00008L4.13336 7.60008L3.73336 7.06674ZM5.7334 5.53339L5.20006 5.60006L5.5334 6.1334L5.7334 5.53339ZM2.7334 8.00009L1.80006 7.86676L2.40006 6.93343L2.7334 8.00009ZM1.0667 10.1334L0.866699 10.9334L1.8667 10.7334L1.0667 10.1334ZM3.46672 9.66674L3.86671 9.53341L3.80005 10.0667L3.46672 9.66674ZM2.19999 10.0001L2.66666 10.1335L2.59999 9.60012L2.19999 10.0001ZM3.26672 11.4001L3.00005 11.5334V11.2668L3.26672 11.4001ZM2.19999 11.8667L1.99999 11.9334L2.13332 12.1334L2.19999 11.8667ZM7.6667 5.93344L8.00003 5.66677L8.0667 6.13344L7.6667 5.93344ZM7.46672 4.93339L7.13338 5.13339L7.53338 5.40006L7.46672 4.93339ZM5.59999 5.13344L6.13332 4.73344L6.26665 5.46678L5.59999 5.13344Z" fill="#FF593E"/>
<path fill-rule="evenodd" clip-rule="evenodd" d="M9.06687 4.46665L8.8002 4.19998L9.26687 4.06665L9.06687 4.46665ZM10.1335 4.80003L10.0002 4.60003L10.2668 4.53336L10.1335 4.80003ZM8.1335 4.79997L8.40016 4.59997V4.99997L8.1335 4.79997ZM6.73352 6.00003L7.00019 5.80003L7.06686 6.20003L6.73352 6.00003ZM7.73354 5.66666L7.93353 5.86666L8.06686 5.6L7.73354 5.66666ZM3.3335 8.60001L3.1335 8.13335L3.73349 8.20002L3.3335 8.60001ZM5.20022 7L5.33355 7.2L5.46688 6.93333L5.20022 7ZM9.06687 4.73332L9.2002 4.86665L9.33353 4.66665L9.06687 4.73332ZM5.33349 6.2667L5.46682 6.4667L5.60015 6.20003L5.33349 6.2667ZM7.13349 5.6667L7.40016 5.4667L7.46682 5.8667L7.13349 5.6667ZM6.86681 5.46665L7.06681 5.06665H6.53349L6.86681 5.46665ZM6.6002 4.20003L6.4002 4.80003L5.86687 4.20003H6.6002ZM8.00021 5.33336L7.80021 5.20003L7.73354 5.4667L8.00021 5.33336ZM7.06688 6.26665L7.26688 6.13332L7.33354 6.39999L7.06688 6.26665ZM6.26682 5.93333L6.06682 5.73333L6.00015 6.06667L6.26682 5.93333ZM2.20019 12.3334L2.00019 12.5334L1.93353 12.2L2.20019 12.3334ZM1.13356 13.7333L1.26689 13.6L1.06689 13.4667L1.13356 13.7333ZM1.53353 12.6L1.33353 12.8L1.26686 12.5334L1.53353 12.6ZM1.13351 14.2L1.3335 14.4L1.40017 14.0667L1.13351 14.2ZM1.80015 13.3333L1.46682 13.4666V13.1333L1.80015 13.3333Z" fill="#FF593E"/>
<path fill-rule="evenodd" clip-rule="evenodd" d="M5.00007 6.80001L4.60006 6.46668L5.20007 6.20001L5.00007 6.80001ZM1.26674 11.6L0.933414 11.2667L1.46674 11.1333L1.26674 11.6ZM2.46676 13.0667L2.2001 13.2V12.8667L2.46676 13.0667ZM1.20008 11.6667L0.866748 12.2L1.66674 12.2667L1.20008 11.6667ZM0.866699 13.0666V12.4666L1.33338 12.8L0.866699 13.0666ZM1.13344 13.8L1.00011 14L1.26677 14.0666L1.13344 13.8Z" fill="#FF593E"/>
<path fill-rule="evenodd" clip-rule="evenodd" d="M11.9999 1.86665L11.3999 1.33332L12.1999 1.06665L11.9999 1.86665ZM11.1999 3.6L11.5333 3.73333V3.33333L11.1999 3.6ZM11.5999 3.66662L12.1333 3.79995L11.7333 4.26662L11.5999 3.66662ZM4.39993 5.33332L4.6666 4.73331L5.0666 5.39998L4.39993 5.33332ZM4.99995 6.19995L5.13328 5.99995L5.33329 6.26662L4.99995 6.19995ZM4.6666 5.66665L4.4666 6.06665L4.99994 6.13332L4.6666 5.66665ZM6.53324 6.6L6.9999 6.73333L6.66657 7.13333L6.53324 6.6ZM4.7999 6.73331L4.3999 6.66665L4.46657 7.13331L4.7999 6.73331ZM10.6 3.26665L10.5333 3.86665L11.1333 3.66665L10.6 3.26665ZM11.1332 2.26666L10.5999 1.8L11.3999 1.53333L11.1332 2.26666ZM8.46655 3.73328L9.13321 3.86662L8.93321 3.13328L8.46655 3.73328ZM11 4.00002L11.3333 4.06668L11.0666 4.33335L11 4.00002Z" fill="#FF593E"/>
<path fill-rule="evenodd" clip-rule="evenodd" d="M11.7333 2.20003L11.2666 1.80004L11.9333 1.60004L11.7333 2.20003ZM6.73335 4.2L7.00002 4.73333L7.40001 4.2H6.73335ZM10.4667 5.60002L10.6667 5.66669L10.5334 5.93335L10.4667 5.60002ZM5.80003 6.66665L6.00002 6.73332L5.86669 6.99999L5.80003 6.66665ZM4.8667 4.60002L5.46671 5.13336L5.73338 4.26669L4.8667 4.60002ZM7.46666 7.80002L7.26666 7.53335L7.59999 7.40002L7.46666 7.80002ZM11.7333 5.4L12 5.6L12.1333 5.33334L11.7333 5.4ZM9.46671 4.66667L9.26671 4.26667L9.80003 4.33334L9.46671 4.66667ZM9.93335 3.73335L9.66668 4.06669L10.1334 4.13335L9.93335 3.73335ZM9.40005 3.93337L9.20006 3.53337H9.73338L9.40005 3.93337ZM8.60004 3.93334L8.80004 4.33334L9.13338 4L8.60004 3.93334ZM8.53339 5L8.80005 5.06667L8.60005 5.26667L8.53339 5ZM9.86669 5.39999L9.60003 5.33332L9.66669 5.66665L9.86669 5.39999ZM7.79999 7.99998L7.59999 7.79998L7.93332 7.66665L7.79999 7.99998ZM7.53333 6.86665L7.46666 7.06665L7.73332 7.13332L7.53333 6.86665ZM6.13336 6.19999L6.26669 6.46665H5.86669L6.13336 6.19999Z" fill="#FF593E"/>
<path fill-rule="evenodd" clip-rule="evenodd" d="M5.7334 6.79999L6.00006 6.53333L6.06673 6.99999L5.7334 6.79999ZM6.60004 8.33337V8.00004L6.93336 8.20004L6.60004 8.33337Z" fill="#FF593E"/>
<path fill-rule="evenodd" clip-rule="evenodd" d="M13.8669 4.20001L14.4669 4.40001L14.0002 4.93334L13.8669 4.20001ZM5.80022 6.53331L5.93355 6.73331L6.06689 6.46665L5.80022 6.53331ZM4.3336 7.66666L3.93359 7.93333L4.46693 8.13333L4.3336 7.66666ZM5.60021 8.13338L5.33354 7.93338L5.66687 7.80004L5.60021 8.13338ZM6.73359 7.19999L7.00025 7.39999L7.06692 7.06666L6.73359 7.19999ZM5.80022 8.86667L5.60023 8.66668L5.93355 8.53334L5.80022 8.86667ZM5.93355 7.13333L5.80021 7.33333H6.13355L5.93355 7.13333ZM10.0003 4.79999L9.7336 4.73333L9.80026 5.06666L10.0003 4.79999ZM6.26691 7.93331L6.53358 7.99998L6.33358 8.26665L6.26691 7.93331Z" fill="#FF593E"/>
<path fill-rule="evenodd" clip-rule="evenodd" d="M11.6665 10.1334L11.9998 10.4001L12.1332 10.0001L11.6665 10.1334ZM13.0666 10.4667L13.2666 10.2L13.4666 10.6L13.0666 10.4667ZM13.8665 10.9334L14.1332 10.8001L13.8665 10.6001V10.9334ZM14.9999 11.2667L14.7332 11.6L14.5332 11.2L14.9999 11.2667ZM19.9998 12.3334L19.6665 12.8001L19.3999 12.2001L19.9998 12.3334ZM20.9332 12.8001L20.3332 12.0001L19.7332 12.8001H20.9332ZM19.4665 12.8001L18.6665 12.7334L19.2665 12.0001L19.4665 12.8001ZM13.5332 11.2L13.1999 10.8L13.7999 10.6L13.5332 11.2Z" fill="#AF2500"/>
<path fill-rule="evenodd" clip-rule="evenodd" d="M15.0664 8.73336L14.9331 8.40002L14.7998 8.73336H15.0664ZM12.6664 8.80006L12.5331 8.53339L12.3997 8.80006H12.6664ZM18.9998 9.33337L19.2664 9.20004L18.9998 9.06671V9.33337ZM11.7998 9.53337L11.9998 9.40004L11.7998 9.20004V9.53337ZM13.3997 11.4001L13.7997 11.0001L13.9997 11.6667L13.3997 11.4001ZM18.5998 12.0667L18.7998 12.7334L17.9331 12.6667L18.5998 12.0667ZM14.7998 11.9334L14.6665 11.2L14.0665 11.6667L14.7998 11.9334ZM15.9331 11.6L16.1998 12.2667L15.3998 12.1333L15.9331 11.6ZM14.1998 10.9333L14.3331 11.2667L13.9331 11.2L14.1998 10.9333ZM13.2664 9.46672L13.0664 9.26672L13.3331 9.20006L13.2664 9.46672ZM13.8664 9.73337L13.5331 9.66671L13.5997 10.0667L13.8664 9.73337ZM14.6664 9.46668V9.73334L14.3997 9.53334L14.6664 9.46668ZM17.7331 8.79999L17.8665 9.06666L17.5998 9.13333L17.7331 8.79999ZM15.1331 9.33336L15.3331 9.06669L15.4664 9.40002L15.1331 9.33336ZM16.8664 12.4667L17.4664 12.6L17.3331 11.9333L16.8664 12.4667ZM13.5331 10.6L13.8664 10.0667L14.1997 10.6667L13.5331 10.6ZM17.4664 9.93339L17.3998 9.73339L17.1997 9.93339H17.4664ZM19.0664 10.6667L18.7331 11L18.5997 10.5333L19.0664 10.6667ZM17.0664 9.40001L17.1997 9.53334L17.2664 9.33334L17.0664 9.40001ZM16.6664 8.86669L16.5331 8.80002L16.6664 8.60002V8.86669ZM19.1998 12.0667L19.3331 11.4L18.5998 11.6L19.1998 12.0667ZM16.8664 12.4001L16.1997 12.3334L16.3331 11.8001L16.7331 11.6667L16.8664 12.4001Z" fill="#AF2500"/>
<path fill-rule="evenodd" clip-rule="evenodd" d="M20.1999 9.93338L20.5999 9.80005L20.4665 10.2667L20.1999 9.93338ZM19.5998 10.8668L19.1332 10.6001L19.7332 10.2668L19.5998 10.8668ZM17.2665 11.6001L16.7332 11.8001L16.5998 11.4667L16.8665 11.1334L17.2665 11.6001ZM17.7999 12.6001L17.3999 12.4001L17.9332 11.8001L18.1998 12.5334L17.7999 12.6001ZM17.9332 11.2L18.3998 11.9334L18.7998 11.6667L18.9998 11.2H17.9332ZM19.3331 11.7334L19.7331 12.4668L20.3331 11.7334H19.3331ZM14.7998 11.9334L15.2665 11.4001L15.5331 12.1334L14.7998 11.9334ZM16.1331 10.6667L15.4665 10.8667L15.9332 11.4667L16.1331 10.6667Z" fill="#AF2500"/>
<path fill-rule="evenodd" clip-rule="evenodd" d="M22.7999 10.1334L23.2665 10.0001L23.0665 10.5334L22.7999 10.1334ZM17.7332 12.0667L16.9332 11.8L17.7332 11.1334V12.0667ZM12.5332 10.9334L13.1999 11.2667L13.1332 10.6667L12.5332 10.9334ZM16.7999 10.5333L16.2665 10.7333L16.3999 10.0667L16.7999 10.5333ZM17.8665 10.1333L18.0665 10.3333L18.1999 10.0667L17.8665 10.1333ZM16.9998 10.1334L17.0665 10.4001H16.7332L16.9998 10.1334ZM15.7332 12V11.6667L15.3999 11.7334L15.7332 12ZM14.5998 11.0667L14.4665 10.5334L15.0665 10.6667L14.5998 11.0667Z" fill="#AF2500"/>
<path fill-rule="evenodd" clip-rule="evenodd" d="M16.1331 10.2L15.9997 10.5333L16.3331 10.4667L16.1331 10.2ZM18.133 11.1334L17.6663 10.8667L18.1997 10.4667L18.133 11.1334ZM17.3997 11.2L16.933 10.8667L17.4664 10.5333L17.3997 11.2ZM19.0664 11.5333L19.5331 11.8667L19.5997 11.2L19.0664 11.5333ZM15.2664 11.0666L15.1997 10.8L15.4664 10.8666L15.2664 11.0666ZM16.7331 11.5333L16.1331 11.6L16.1997 10.7333L16.8664 11.2667L16.7331 11.5333Z" fill="#AF2500"/>
<path fill-rule="evenodd" clip-rule="evenodd" d="M25.1333 9.20003L24.9999 8.8667L25.3333 8.93337L25.1333 9.20003ZM15.7333 9.40001L15.9999 9.33335L15.7999 9.06668L15.7333 9.40001ZM16.4 9.46672L16.5333 9.26672L16.3333 9.20005L16.4 9.46672ZM15.8 9.93337L15.6666 10.1334L15.5333 9.93337H15.8ZM16.2666 11.5333L16.0666 11.6667V11.4667L16.2666 11.5333ZM14.9333 11.4667L14.8 11.2667L15.1333 11.2L14.9333 11.4667ZM12.7333 10.0667L12.6666 10.4L12.9999 10.3333L12.7333 10.0667ZM14.4667 10V10.4L14.0666 10.2L14.4667 10ZM18.6667 12.0667L18.2667 11.5334L17.9333 12.2L18.6667 12.0667ZM15.5333 10.6667V11.0001L15.1999 10.8667L15.5333 10.6667ZM12.4666 9.5334L12.6 9.80007L12.7333 9.46673L12.4666 9.5334ZM20.2 9.46672L20.0666 9.20005H20.3333L20.2 9.46672ZM16.2 9.9334L16.1333 9.66673L16.4 9.7334L16.2 9.9334ZM12.4666 17.4667L11.5333 17.6667L12.1333 18.5334L12.4666 17.4667ZM19.6 10.0667H19.2667L19.4 9.73335L19.6 10.0667ZM23.0667 11.4L23.7333 11.3333L23.3333 10.7333L23.0667 11.4ZM22.7333 9.13334L22.7999 9.4L22.9999 9.2L22.7333 9.13334ZM9.99997 18.4667L10.3333 19.1334L9.46663 19.0667L9.99997 18.4667ZM21.7333 12.3334L21.8666 11.6667L21.1333 11.8667L21.7333 12.3334ZM20.6 11.9333L20.5334 12.2667L20.2 12L20.6 11.9333ZM20.7333 11.4667L20.8666 11.0667L20.4 11.2L20.7333 11.4667ZM12.6 13.6667L12.8 14.7334L11.8 14.2L12.6 13.6667ZM12.5333 13.6L12.2666 12.7333L11.8 13.4667L12.5333 13.6ZM10.1333 13L10.3333 13.3334H9.86665L10.1333 13ZM11.2 13L11 12.6667L10.7333 13H11.2ZM8.73331 18.9334L8.79997 19.5334L8.1333 19.2667L8.73331 18.9334ZM9.06668 19.2L9.33335 19.4L9.40001 19L9.06668 19.2ZM9.39998 18.9334L8.99997 18.6667L9.53332 18.3334L9.39998 18.9334ZM22.4 10.8L22.6 10.4H22.0666L22.4 10.8ZM24.1333 9.1334L24.0666 9.46673L23.8 9.20007L24.1333 9.1334ZM9.66663 15.7333L9.53329 15.4L9.26663 15.6667L9.66663 15.7333ZM9.33327 13.9334L9.0666 14.0667L9.13327 13.6667L9.33327 13.9334Z" fill="#AF2500"/>
<path fill-rule="evenodd" clip-rule="evenodd" d="M21.1999 10.2668L21.4666 10.5334L21.5999 10.1334L21.1999 10.2668ZM21.8666 10.9335L21.1332 10.6001V11.5335L21.8666 10.9335ZM20.4666 10.8001L20.2666 11.6668L19.4666 11.0668L20.4666 10.8001ZM10.3999 12.3334L10.2666 12.0667L9.99995 12.3334H10.3999ZM11.7332 13.2001L12.0666 13.8667L11.2666 13.8001L11.7332 13.2001ZM10.8666 13.7335L11.1999 14.4001L10.3999 14.2668L10.8666 13.7335ZM22.1332 12.0001L22.7332 12.2668L22.1332 12.7334V12.0001ZM26.1333 11.5334L25.5333 11.2001L25.3999 11.9334L26.1333 11.5334ZM20.9332 11.4668L21.1999 12.0668H20.6666L20.9332 11.4668ZM9.73323 14.0001L9.53323 14.1334L9.73323 14.3334V14.0001ZM10.1999 15.3335L10.3333 15.4668L10.1333 15.5335L10.1999 15.3335ZM7.53328 16.4001L7.66662 16.2001H7.39994L7.53328 16.4001ZM9.06657 12.6001L8.93324 12.8001L8.7999 12.6001H9.06657ZM9.46655 11.6667L9.59988 11.4667L9.33322 11.4001L9.46655 11.6667ZM8.6666 15.7335L8.8666 15.9335L8.59993 16.0668L8.6666 15.7335ZM9.73329 15.0001L9.46662 14.8001L9.33329 15.2001L9.73329 15.0001ZM7.53326 16.7334L7.39993 16.9334L7.2666 16.7334H7.53326ZM9.59989 19.8001L9.86656 20.4001L9.13322 20.3335L9.59989 19.8001ZM11.4666 15.9334L11.1332 15.7334L11.0666 16.2001L11.4666 15.9334ZM11.8 15.7335L12.3333 16.0668L11.7333 16.4001L11.8 15.7335ZM12.5333 17.0001L11.9333 16.8001L12.0666 17.5334L12.5333 17.0001ZM23.6665 12.0668L23.4665 12.3334L23.3332 12.0001L23.6665 12.0668ZM23.8665 12.4668L24.2665 12.3334L23.7332 12.1334L23.8665 12.4668ZM20.9333 11.0001L20.4666 10.8668L20.8666 10.4668L20.9333 11.0001Z" fill="#AF2500"/>
<path fill-rule="evenodd" clip-rule="evenodd" d="M14.6001 10.0001L15.1334 10.2001L15.0668 9.53339L14.6001 10.0001ZM21.1334 9.9334L21.5334 10.0667L21.4667 9.60007L21.1334 9.9334ZM23.8667 12.2L23.4667 11.6667L24.2 11.6L23.8667 12.2Z" fill="#AF2500"/>
<path fill-rule="evenodd" clip-rule="evenodd" d="M23.9335 10.6667L23.8002 10.4667L23.6668 10.6667H23.9335ZM23.7335 11.8667L24.1335 11.3334L24.4002 12L23.7335 11.8667ZM21.8001 12.2667L22.2001 12.4L21.8668 12.6667L21.8001 12.2667ZM22.7335 12.6667L23.5335 12.5334L23.2669 12L22.7335 12.6667ZM21.8001 12.8H21.0001L21.1335 12L21.8001 12.8ZM10.6668 12.8L10.5335 12.5334L10.2668 12.8H10.6668ZM11.7335 15.8667L11.5335 16V15.6667L11.7335 15.8667ZM10.9335 11.7334L11.1335 11.5334L10.8002 11.4667L10.9335 11.7334ZM10.9335 12.3333L10.7335 12.2L11.0001 12.0667L10.9335 12.3333ZM12.0669 14.6L11.4002 14.4667L11.6669 15.2667L12.0669 14.6ZM10.2668 16.8667L10.6002 16.8L10.4668 17.1334L10.2668 16.8667ZM12.6002 16.8L12.6668 16.1334L11.9335 16.4L12.6002 16.8ZM10.4668 14.5334L10.6668 15.0001L10.0668 14.9334L10.4668 14.5334ZM11.3335 17.4667L11.8002 17.2667L11.4002 16.8L11.3335 17.4667ZM10.3335 16.2667L9.86686 16.6001L9.80019 15.9334L10.3335 16.2667ZM11.0002 16.9334L11.4002 16.6L10.8668 16.3334L11.0002 16.9334ZM10.8668 18.6001L10.4002 18.9334L10.3335 18.2667L10.8668 18.6001ZM12.8001 14.9334L11.8668 15.3334L12.7335 16.0667L12.8001 14.9334ZM11.8668 11.8667L12.2001 12.6667L11.2001 12.6L11.8668 11.8667ZM10.0668 14.5334L10.4001 14.2001L9.93347 14.0001L10.0668 14.5334ZM10.8668 13.4001L11.3335 13.2667L11.2668 13.8667L10.8668 13.4001ZM10.0669 12.6L9.86686 12.3334L9.73353 12.6H10.0669ZM10.6002 11.4667L10.4002 11.6667L10.3335 11.4L10.6002 11.4667ZM7.73347 18.9334L7.93347 18.5334H7.4668L7.73347 18.9334ZM9.40012 19.9334L9.26679 20.2667L9.00013 19.9334H9.40012ZM10.4668 19.8L10.8001 19.2H10.0001L10.4668 19.8ZM8.33347 18.8L8.20014 19.1334L8.00014 18.8H8.33347ZM9.20015 19.2667L9.33348 19H9.00015L9.20015 19.2667ZM9.20014 17.8667L9.46681 18L9.26681 18.2L9.20014 17.8667ZM11.4668 15.3334L11.0002 15L10.8668 15.6L11.4668 15.3334ZM10.0002 17.2667L10.2002 17.4001L10.0002 17.5334V17.2667ZM24.7335 10.4667L24.8669 10.6667H24.6002L24.7335 10.4667ZM25.0668 11.2001L24.8668 10.9334L24.6001 11.2667L25.0668 11.2001ZM10.2001 18L10.4668 18.0667L10.2001 18.2667V18ZM9.00016 19.8L9.13349 19.4667H8.80016L9.00016 19.8ZM9.53353 20.0001L9.46686 19.5334L10.0002 19.7334L9.53353 20.0001Z" fill="#AF2500"/>
<path fill-rule="evenodd" clip-rule="evenodd" d="M10.3334 9.8667L10.6001 9.93337L10.4001 10.1334L10.3334 9.8667ZM11.1334 10.4L11.2001 10.1333L11.4001 10.3333L11.1334 10.4ZM10.2668 10.9333L10.2001 11.2667L10.5335 11.2L10.2668 10.9333ZM9.93343 18.6L10.0668 18.8667H9.8001L9.93343 18.6ZM8.8001 19.1333L8.93343 18.9334H8.6001L8.8001 19.1333ZM10.4667 20.2667L10.3334 19.6667L11.0667 19.8667L10.4667 20.2667ZM9.06676 19.9334H8.80009L9.00009 19.6667L9.06676 19.9334ZM10.8001 10.8667L10.7335 11.1334L11.0001 11.0667L10.8001 10.8667ZM10.8001 10.4L10.6667 10.6667H11.0001L10.8001 10.4ZM11.5335 13L11.6668 12.8L11.8668 13.0667L11.5335 13ZM11.7335 11.6667L11.3335 11.5334L11.4001 12.0667L11.7335 11.6667ZM11.4668 10.9333L11.6668 11.6L10.8668 11.4L11.4668 10.9333Z" fill="#AF2500"/>
<path fill-rule="evenodd" clip-rule="evenodd" d="M11.4668 10.4667V10.9334L11.0668 10.6667L11.4668 10.4667ZM10.4668 17.4668L11.0001 17.5335L10.6001 18.0668L10.4668 17.4668Z" fill="#AF2500"/>
<path fill-rule="evenodd" clip-rule="evenodd" d="M23.3331 9.53337L23.5998 9.60004V9.33337L23.3331 9.53337ZM22.8665 11.2L22.5998 11.0667L22.7998 10.8L22.8665 11.2ZM22.2665 11.4667L21.7331 11.2667L22.1998 10.8667L22.2665 11.4667ZM10.6665 17.4L11.1332 17.2667L10.7332 16.8667L10.6665 17.4ZM11.3332 17.7334L10.7999 18L11.3332 18.2667V17.7334ZM10.4665 18.0667L10.7332 17.9333V18.2L10.4665 18.0667ZM11.0665 18.7333L11.7332 18.4L11.7998 19.0667L11.0665 18.7333ZM9.26645 18.4001L8.73311 18.5334L8.86645 18.0001L9.26645 18.4001ZM22.7998 11.8L22.3998 11.6V12.0667L22.7998 11.8ZM23.3331 11.4L23.1331 12L22.5998 11.5333L23.3331 11.4ZM25.3331 12L24.7331 11.5333V12.2L25.3331 12ZM9.86652 17.9333L9.59985 18L9.66651 17.7333L9.86652 17.9333ZM10.4665 20.2667L10.0665 19.8001L9.79979 20.4001L10.4665 20.2667ZM10.9332 18.9334L11.7332 19.2001L10.9998 19.8001L10.9332 18.9334ZM8.13314 17.8667L7.7998 17.8L7.93314 18.1334L8.13314 17.8667ZM22.0665 9.46673L22.2665 9.66673L21.9331 9.73339L22.0665 9.46673ZM26.2664 11.4667V10.7333L25.5331 11.1333L26.2664 11.4667ZM25.8665 10.8667L25.2665 10.6667L25.8665 10.2667V10.8667Z" fill="#AF2500"/>
<path fill-rule="evenodd" clip-rule="evenodd" d="M28.6666 8.13337L28.5333 7.93337L28.8666 7.8667L28.6666 8.13337ZM26.6665 8.6667L26.4665 8.4667L26.7332 8.33337L26.6665 8.6667ZM25.3332 9.99999L24.9332 10.2L25.3332 10.5333V9.99999ZM25.9999 10.9334L26.5332 11.1334L26.4666 10.4667L25.9999 10.9334ZM26.0666 10.0001L26.3999 9.86672L26.1332 9.60005L26.0666 10.0001ZM26.9332 9.66668L26.5998 9.86668L26.9999 10.0667L26.9332 9.66668ZM28.5332 8.73338L28.3332 9.20005L27.9999 8.73338H28.5332ZM26.7332 11L27.3332 10.4L26.3999 10.0667L26.7332 11ZM27.1999 9.53335L27.9999 9.66668L27.3999 10.4L27.1999 9.53335ZM27.7999 9.26665L28.0665 9.46665L28.1332 9.06666L27.7999 9.26665ZM26.9332 9.53332L26.4666 9.46665L26.7332 8.99999L26.9332 9.53332ZM27.3999 8.80005L27.7999 8.86672L27.5999 8.40005L27.3999 8.80005ZM28.4666 8.20002L28.7332 8.40002L28.3999 8.53335L28.4666 8.20002ZM24.5999 11.0667L24.5332 10.6667L24.1333 11L24.5999 11.0667ZM24.1999 11.2667L23.9332 11.6L23.7332 11.1333L24.1999 11.2667ZM24.5999 11.8667L24.4666 11.4667L24.1333 11.7334L24.5999 11.8667ZM25.1332 11.0667L25.1999 11.4667L24.7332 11.4L25.1332 11.0667ZM25.3999 9.53337L25.6666 9.6667V9.33337L25.3999 9.53337ZM24.3999 10L24.1999 9.93337L24.3999 9.6667V10ZM7.73323 17.8L7.3999 17.7333L7.46657 18.0667L7.73323 17.8ZM7.93324 18.5333L8.19991 18.4V18.6667L7.93324 18.5333ZM9.53325 18.4L9.79992 18.5334L9.86659 18.2L9.53325 18.4ZM8.33326 16.8667L8.53326 17.1333L8.13326 17.2L8.33326 16.8667ZM10.3332 18.0667L10.4665 17.7333L10.0665 17.6667L10.3332 18.0667ZM9.66653 17.9333L9.9332 18.0667L9.7332 18.2667L9.66653 17.9333ZM10.6666 16.3334L10.7999 15.9334L10.3332 16.0001L10.6666 16.3334ZM9.33327 16.5333L9.6666 16.6L9.39993 16.9333L9.33327 16.5333ZM8.73324 17.9333L8.39991 17.8667L8.53324 18.2L8.73324 17.9333ZM8.73323 16.0667L9.06657 16.1333L8.7999 16.4L8.73323 16.0667ZM9.53326 17.6L9.46659 17.4L9.19991 17.5334L9.53326 17.6ZM12.4666 10.8667L11.8666 10.6001L12.3999 10.4001L12.4666 10.8667ZM23.9999 10.4667L24.1999 10.5333V10.2667L23.9999 10.4667ZM8.79991 17.0667L8.59991 17.1334V16.8001L8.79991 17.0667Z" fill="#AF2500"/>
<path d="M24.9997 23.4C23.7997 23.4 22.7997 21.7334 22.7997 19.8667C22.7997 18 23.7997 16.3334 24.9997 16.3334C25.1997 16.3334 25.4664 16.4 25.6664 16.4667V15.7334C25.4664 15.6667 25.2664 15.6 25.0664 15.6C23.4664 15.6 22.1997 17.5334 22.1997 19.8667C22.1997 22.2 23.4664 24.1334 25.0664 24.1334H25.333L25.3997 23.4667C25.1997 23.3334 25.0664 23.4 24.9997 23.4Z" fill="white"/>
<path d="M27.8664 19.8C27.8664 17.8 26.933 16.0667 25.5997 15.6667V16.4C26.4664 16.8667 27.133 18.2 27.133 19.8C27.133 21.5334 26.333 23 25.2664 23.2667L25.1997 23.9334C26.733 23.8 27.8664 22 27.8664 19.8Z" fill="#CCCCCC"/>
<defs>
<linearGradient id="paint0_linear_439:76501" x1="11.262" y1="38.9277" x2="16.8703" y2="34.2639" gradientUnits="userSpaceOnUse">
<stop stop-color="#BC5A32" stop-opacity="0.01"/>
<stop offset="0.99" stop-color="#BC5A32"/>
</linearGradient>
<linearGradient id="paint1_linear_439:76501" x1="21.178" y1="14.8875" x2="20.1026" y2="8.99136" gradientUnits="userSpaceOnUse">
<stop stop-color="#BC5A32" stop-opacity="0.01"/>
<stop offset="0.99" stop-color="#BC5A32"/>
</linearGradient>
<linearGradient id="paint2_linear_439:76501" x1="7.36598" y1="24.782" x2="7.60895" y2="21.2313" gradientUnits="userSpaceOnUse">
<stop stop-color="#CC7A5E" stop-opacity="0.01"/>
<stop offset="0.924" stop-color="#AA5F4B"/>
</linearGradient>
</defs>
</svg>
